<svg width="64" height="64" viewBox="0 0 64 64" xmlns="http://www.w3.org/2000/svg">
    <!-- Base Color -->
    <rect width="64" height="64" fill="#F8A030" />
    
    <!-- Edges Detail -->
    <path d="M 0 0 L 64 0 L 56 8 L 8 8 Z" fill="#FCEAC0" />
    <path d="M 0 0 L 8 8 L 8 56 L 0 64 Z" fill="#FCDA80" />
    <path d="M 64 64 L 0 64 L 8 56 L 56 56 Z" fill="#905000" />
    <path d="M 64 64 L 56 56 L 56 8 L 64 0 Z" fill="#B06000" />

    <!-- Corner Dots -->
    <circle cx="12" cy="12" r="3" fill="#B06000" />
    <circle cx="52" cy="12" r="3" fill="#B06000" />
    <circle cx="12" cy="52" r="3" fill="#B06000" />
    <circle cx="52" cy="52" r="3" fill="#B06000" />

    <!-- Question Mark -->
    <path d="M 28 20 C 28 14, 38 14, 40 20 C 42 26, 32 30, 32 36 L 32 40" fill="none" stroke="#B06000" stroke-width="6" stroke-linecap="round" />
    <path d="M 26 18 C 26 12, 36 12, 38 18 C 40 24, 30 28, 30 34 L 30 38" fill="none" stroke="#FFFFFF" stroke-width="6" stroke-linecap="round" />
    
    <circle cx="32" cy="48" r="4" fill="#B06000" />
    <circle cx="30" cy="46" r="4" fill="#FFFFFF" />
</svg>
