<svg width="200" height="200" viewBox="0 0 100 100" xmlns="http://www.w3.org/2000/svg">
  <defs>
    <linearGradient id="soilGrad" x1="0%" y1="0%" x2="0%" y2="100%">
      <stop offset="0%" style="stop-color:#4E342E; stop-opacity:1" />
      <stop offset="100%" style="stop-color:#211411; stop-opacity:1" />
    </linearGradient>
    
    <linearGradient id="grassGrad" x1="0%" y1="0%" x2="0%" y2="100%">
      <stop offset="0%" style="stop-color:#81C784; stop-opacity:1" />
      <stop offset="100%" style="stop-color:#2E7D32; stop-opacity:1" />
    </linearGradient>
  </defs>

  <rect width="100" height="100" fill="url(#soilGrad)"/>

  <circle cx="20" cy="60" r="2" fill="#3E2723" />
  <circle cx="80" cy="85" r="1.5" fill="#5D4037" />
  <circle cx="50" cy="70" r="2.5" fill="#3E2723" />

  <rect width="100" height="35" fill="url(#grassGrad)"/>

  <path d="M0 35 Q 5 25 10 35 T 20 35 T 30 35 T 40 35 T 50 35 T 60 35 T 70 35 T 80 35 T 90 35 T 100 35" 
        fill="none" stroke="#2E7D32" stroke-width="2" />

  <path d="M15 30 L17 22 L19 30" fill="#1B5E20" opacity="0.6" />
  <path d="M45 28 L47 20 L49 28" fill="#1B5E20" opacity="0.6" />
  <path d="M75 32 L77 25 L79 32" fill="#1B5E20" opacity="0.6" />
</svg>